<?xml version="1.0" standalone="no"?>
<!DOCTYPE svg PUBLIC "-//W3C//DTD SVG 20010904//EN"
 "http://www.w3.org/TR/2001/REC-SVG-20010904/DTD/svg10.dtd">
<svg version="1.0" xmlns="http://www.w3.org/2000/svg"
 width="739.000000pt" height="207.000000pt" viewBox="0 0 739.000000 207.000000"
 preserveAspectRatio="xMidYMid meet">

<g transform="translate(0.000000,207.000000) scale(0.100000,-0.100000)"
fill="#000000" stroke="none">
<path d="M936 1967 c-16 -11 -14 -13 18 -13 19 0 34 0 33 1 -1 0 -9 6 -18 13
-12 9 -19 9 -33 -1z"/>
<path d="M1070 1906 c0 -2 8 -10 18 -17 15 -13 16 -12 3 4 -13 16 -21 21 -21
13z"/>
<path d="M735 1850 c-3 -6 1 -7 9 -4 18 7 21 14 7 14 -6 0 -13 -4 -16 -10z"/>
<path d="M1140 1856 c0 -2 7 -7 16 -10 8 -3 12 -2 9 4 -6 10 -25 14 -25 6z"/>
<path d="M667 1813 c-4 -3 -7 -11 -7 -17 0 -6 5 -5 12 2 6 6 9 14 7 17 -3 3
-9 2 -12 -2z"/>
<path d="M760 1790 c-9 -6 -10 -10 -3 -10 6 0 15 5 18 10 8 12 4 12 -15 0z"/>
<path d="M690 1750 c-19 -11 -31 -19 -27 -20 11 0 67 29 67 35 0 7 -1 7 -40
-15z"/>
<path d="M927 1762 c-18 -2 -31 -12 -37 -25 -16 -43 -53 -236 -47 -251 4 -11
19 -16 43 -16 l37 0 -5 -85 c-4 -64 -2 -87 8 -96 11 -9 25 13 75 117 34 71 62
143 63 159 1 28 -2 30 -36 33 -21 2 -38 4 -38 5 0 1 7 27 15 57 23 85 21 97
-17 101 -18 2 -46 3 -61 1z"/>
<path d="M4473 1683 c-10 -4 -13 -60 -13 -236 -1 -154 -4 -226 -10 -215 -18
29 -99 69 -154 75 -193 20 -328 -172 -271 -385 16 -56 27 -75 70 -119 57 -56
98 -73 182 -73 67 0 99 13 146 58 l37 36 0 -42 0 -42 95 0 95 0 0 469 0 469
-37 6 c-41 7 -120 6 -140 -1z m-87 -543 c147 -72 50 -309 -100 -246 -49 20
-76 68 -76 133 0 61 32 107 83 122 46 13 46 13 93 -9z"/>
<path d="M3720 1210 l0 -470 95 0 95 0 0 470 0 470 -95 0 -95 0 0 -470z"/>
<path d="M2736 1574 c-35 -36 -36 -101 -2 -141 21 -24 32 -28 76 -28 46 0 55
4 82 34 26 29 30 39 25 75 -8 57 -43 86 -106 86 -39 0 -53 -5 -75 -26z"/>
<path d="M2077 1583 c-4 -3 -7 -195 -7 -425 l0 -418 100 0 100 0 0 170 0 170
150 0 151 0 -3 83 -3 82 -135 2 c-74 1 -141 2 -148 2 -10 1 -12 21 -10 79 l3
77 158 3 157 3 0 83 c0 78 -1 84 -22 90 -31 8 -483 8 -491 -1z"/>
<path d="M3212 1291 c-71 -24 -121 -66 -157 -132 -27 -48 -30 -63 -30 -139 0
-75 4 -91 30 -138 54 -99 129 -143 253 -150 115 -6 163 9 229 73 29 28 53 58
53 67 0 17 -53 42 -113 53 -32 6 -39 4 -60 -21 -21 -24 -31 -28 -74 -27 -55 1
-104 22 -127 55 -33 47 -30 48 190 48 l207 0 -7 72 c-15 163 -121 259 -285
258 -31 -1 -80 -9 -109 -19z m187 -147 c55 -46 44 -54 -78 -54 -61 0 -112 4
-115 8 -6 10 23 46 49 60 11 6 41 12 67 12 36 0 54 -6 77 -26z"/>
<path d="M4945 1290 c-72 -23 -126 -66 -163 -128 -24 -42 -27 -56 -27 -143 0
-89 2 -99 30 -145 40 -63 116 -121 181 -135 71 -16 190 -8 239 16 l40 20 3 88
c1 48 0 87 -4 87 -3 0 -19 -11 -35 -25 -55 -46 -141 -57 -198 -27 -64 34 -88
116 -55 184 36 76 124 99 211 54 29 -14 54 -30 58 -36 15 -25 25 7 25 80 l0
80 -42 22 c-61 31 -182 35 -263 8z"/>
<path d="M5538 1291 c-75 -24 -127 -67 -163 -133 -26 -47 -30 -63 -30 -138 0
-76 3 -91 29 -138 30 -54 72 -94 136 -128 28 -15 56 -19 145 -19 102 0 113 2
157 27 116 69 158 137 158 257 0 125 -56 214 -165 262 -70 31 -190 36 -267 10z
m185 -153 c50 -26 73 -128 43 -187 -34 -65 -128 -83 -185 -35 -54 45 -65 137
-23 192 34 44 111 58 165 30z"/>
<path d="M6334 1291 c-23 -10 -49 -29 -58 -42 -9 -13 -16 -19 -17 -14 -1 6 -2
21 -2 35 -2 24 -4 25 -89 28 l-88 3 0 -281 0 -281 88 3 87 3 5 197 c4 170 7
200 22 215 21 20 82 23 101 5 8 -9 13 -72 17 -215 l5 -202 93 -3 92 -3 0 186
c0 204 7 237 56 249 37 10 62 -1 79 -34 12 -23 15 -70 15 -215 l0 -185 90 0
c65 0 90 3 91 13 0 6 0 106 -1 222 -1 192 -3 214 -22 254 -46 96 -188 109
-292 28 -27 -21 -41 -27 -44 -18 -6 18 -44 52 -70 62 -38 15 -114 10 -158 -10z"/>
<path d="M2727 1293 c-4 -3 -7 -129 -7 -280 l0 -273 90 0 90 0 0 280 0 280
-83 0 c-46 0 -87 -3 -90 -7z"/>
<path d="M456 1175 c-11 -8 -16 -15 -10 -15 5 0 18 7 28 15 11 8 16 15 10 15
-5 0 -18 -7 -28 -15z"/>
<path d="M1024 1154 c-18 -14 -18 -15 4 -4 12 6 22 13 22 15 0 8 -5 6 -26 -11z"/>
<path d="M400 1140 c-9 -6 -10 -10 -3 -10 6 0 15 5 18 10 8 12 4 12 -15 0z"/>
<path d="M1085 1000 c-3 -6 1 -7 9 -4 18 7 21 14 7 14 -6 0 -13 -4 -16 -10z"/>
<path d="M1215 1000 c-3 -5 -2 -10 4 -10 5 0 13 5 16 10 3 6 2 10 -4 10 -5 0
-13 -4 -16 -10z"/>
<path d="M100 959 c0 -5 5 -7 10 -4 6 3 10 8 10 11 0 2 -4 4 -10 4 -5 0 -10
-5 -10 -11z"/>
<path d="M395 921 c-65 -40 -95 -92 -95 -162 0 -79 50 -149 127 -176 29 -10
35 -10 40 3 3 8 -2 23 -11 33 -18 20 -21 41 -6 41 6 0 10 7 10 15 0 8 -9 15
-20 15 -14 0 -20 7 -20 24 0 15 7 26 20 29 26 7 26 27 -1 34 -13 4 -19 12 -17
27 4 28 38 35 38 7 0 -27 30 -28 37 -1 7 26 43 27 43 1 0 -26 36 -69 62 -73
12 -2 22 -11 24 -21 4 -26 12 -33 25 -20 20 20 6 127 -22 167 -47 70 -167 99
-234 57z m71 -37 c-3 -9 -6 -18 -6 -20 0 -2 -7 -4 -15 -4 -13 0 -14 4 -5 20
13 24 35 27 26 4z m64 -15 c0 -5 -7 -9 -15 -9 -9 0 -15 9 -15 21 0 18 2 19 15
9 8 -7 15 -16 15 -21z m-126 6 c-4 -8 -13 -15 -21 -15 -13 0 -13 3 -3 15 7 8
16 15 21 15 5 0 6 -7 3 -15z m177 -1 c12 -14 11 -16 -5 -13 -11 2 -21 10 -24
17 -5 17 13 15 29 -4z m-197 -53 c11 -18 -6 -41 -30 -41 -26 0 -32 18 -12 38
14 14 35 16 42 3z m236 -10 c14 -28 13 -31 -14 -31 -22 0 -36 16 -36 41 0 17
39 9 50 -10z m-236 -87 c10 -27 7 -34 -18 -34 -22 0 -36 16 -36 41 0 16 48 10
54 -7z m16 -80 c0 -14 -3 -14 -15 -4 -8 7 -15 14 -15 16 0 2 7 4 15 4 8 0 15
-7 15 -16z"/>
<path d="M1415 905 c-61 -22 -115 -100 -115 -167 0 -31 15 -68 22 -58 2 3 16
24 31 48 38 59 41 52 6 -16 -38 -76 -70 -170 -60 -176 4 -3 17 -3 28 0 16 4
23 18 30 52 7 40 12 48 33 50 14 2 36 13 48 25 26 24 62 88 62 111 0 24 49 74
85 88 19 6 35 15 35 19 0 7 -127 39 -152 39 -7 -1 -31 -7 -53 -15z"/>
<path d="M7115 846 c-65 -29 -91 -95 -61 -158 46 -96 193 -74 211 32 8 49 -9
87 -54 117 -39 26 -54 28 -96 9z m91 -60 c15 -15 19 -63 6 -82 -10 -15 -47
-34 -68 -34 -51 0 -73 81 -33 121 23 23 69 21 95 -5z"/>
<path d="M484 683 c4 -48 10 -91 13 -96 3 -5 18 -6 34 -3 16 3 29 2 29 -2 0
-5 9 -18 21 -31 16 -17 24 -19 35 -11 11 10 11 17 -2 43 -15 29 -15 31 5 47
29 21 21 35 -49 93 -86 70 -94 67 -86 -40z"/>
<path d="M260 516 c0 -3 9 -10 20 -16 11 -6 20 -8 20 -6 0 3 -9 10 -20 16 -11
6 -20 8 -20 6z"/>
<path d="M1745 510 c-3 -6 1 -7 9 -4 18 7 21 14 7 14 -6 0 -13 -4 -16 -10z"/>
<path d="M1515 450 c-3 -6 1 -7 9 -4 18 7 21 14 7 14 -6 0 -13 -4 -16 -10z"/>
<path d="M274 436 c11 -9 24 -16 30 -16 12 0 7 5 -24 19 -24 11 -24 11 -6 -3z"/>
<path d="M1316 375 c10 -8 24 -14 29 -14 6 0 1 6 -9 14 -11 8 -24 15 -30 15
-5 0 -1 -7 10 -15z"/>
<path d="M2700 266 l0 -123 48 -5 c76 -7 122 1 122 23 0 15 -9 18 -57 21 -57
3 -58 3 -58 33 0 27 3 30 35 31 66 3 70 4 70 23 0 17 -8 20 -52 23 -45 3 -53
6 -53 23 0 17 8 20 58 23 53 3 57 5 57 27 0 25 -1 25 -85 25 l-85 0 0 -124z"/>
<path d="M3712 368 c4 -31 53 -34 53 -3 0 15 -8 21 -28 23 -25 3 -28 0 -25
-20z"/>
<path d="M427 349 c7 -7 15 -10 18 -7 3 3 -2 9 -12 12 -14 6 -15 5 -6 -5z"/>
<path d="M1367 349 c7 -7 15 -10 18 -7 3 3 -2 9 -12 12 -14 6 -15 5 -6 -5z"/>
<path d="M5906 351 c-3 -5 -3 -17 0 -26 5 -11 0 -18 -15 -22 -26 -7 -27 -17
-2 -40 14 -13 21 -35 23 -73 3 -47 6 -55 23 -55 17 0 20 8 23 59 2 41 8 64 20
73 16 12 16 14 0 26 -9 7 -18 24 -20 37 -3 26 -40 41 -52 21z"/>
<path d="M3005 300 c-11 -4 -35 -5 -53 -2 l-33 5 3 -84 c3 -76 5 -84 23 -84
18 0 20 8 23 62 2 52 6 63 23 68 29 9 33 1 39 -67 4 -54 8 -62 28 -64 21 -4
22 -1 22 64 0 87 -25 120 -75 102z"/>
<path d="M3173 295 c-60 -25 -71 -89 -24 -136 32 -32 69 -37 110 -16 51 26 25
53 -31 33 -19 -7 -31 -6 -42 3 -29 24 -17 31 49 31 58 0 65 2 65 19 0 27 -39
68 -70 74 -14 3 -39 0 -57 -8z m67 -40 c13 -16 6 -20 -35 -15 -27 3 -32 9 -15
20 21 14 36 12 50 -5z"/>
<path d="M3525 299 c-11 -6 -26 -19 -32 -27 -18 -22 -16 -83 3 -111 15 -20 23
-23 66 -19 45 5 49 3 46 -15 -5 -34 -33 -44 -67 -24 -58 34 -83 11 -36 -33 18
-17 36 -24 62 -23 81 2 106 46 101 176 l-3 72 -40 2 c-22 0 -49 4 -60 7 -11 3
-29 1 -40 -5z m80 -79 c0 -29 -4 -36 -23 -38 -43 -6 -69 37 -40 66 7 7 24 12
38 10 21 -3 25 -8 25 -38z"/>
<path d="M3850 301 c-42 -12 -31 -35 19 -41 61 -7 67 -30 8 -30 -30 0 -49 -6
-60 -18 -42 -46 -3 -81 88 -78 l60 2 3 54 c4 76 -3 96 -39 109 -35 12 -42 12
-79 2z m69 -107 c9 -8 -13 -24 -33 -24 -30 0 -39 10 -25 27 10 11 43 10 58 -3z"/>
<path d="M4146 287 c-55 -55 -16 -166 52 -154 15 2 35 8 45 12 15 6 17 1 17
-44 0 -48 2 -51 25 -51 l25 0 0 125 0 126 -37 -1 c-21 0 -52 2 -70 6 -26 5
-37 1 -57 -19z m90 -35 c17 -11 22 -35 12 -54 -12 -24 -55 -23 -68 2 -20 38
20 76 56 52z"/>
<path d="M4614 296 c-59 -26 -68 -106 -17 -146 30 -24 52 -25 98 -6 50 21 46
40 -7 33 -42 -6 -78 5 -78 23 0 6 30 10 66 10 l66 0 -7 28 c-13 56 -67 82
-121 58z m65 -40 c15 -18 -3 -24 -44 -16 -28 5 -29 6 -10 18 26 15 40 15 54
-2z"/>
<path d="M4948 303 c-52 -8 -85 -82 -58 -132 14 -27 64 -44 105 -37 29 6 35
11 35 31 0 22 -3 24 -25 15 -47 -18 -86 20 -64 61 9 18 17 21 50 16 34 -4 39
-2 39 14 0 12 -10 23 -26 29 -14 6 -26 9 -27 9 -1 -1 -14 -4 -29 -6z"/>
<path d="M5131 300 c-46 -11 -63 -32 -65 -78 -1 -49 23 -79 71 -88 39 -7 89
11 103 37 18 32 12 84 -12 106 -29 27 -55 33 -97 23z m61 -66 c11 -23 10 -29
-11 -45 -30 -25 -61 -10 -61 30 0 34 6 41 37 41 16 0 27 -9 35 -26z"/>
<path d="M5375 301 c-11 -5 -35 -6 -52 -3 l-33 5 0 -82 c0 -64 3 -83 15 -87
28 -11 42 13 37 64 -5 52 12 78 41 66 12 -4 17 -22 19 -67 3 -59 4 -62 28 -62
21 0 25 5 28 35 7 66 -7 116 -34 129 -14 6 -26 11 -27 10 -1 0 -11 -4 -22 -8z"/>
<path d="M5751 292 c-75 -37 -58 -142 25 -158 44 -8 74 3 74 28 0 17 -4 19
-25 14 -40 -10 -67 10 -63 47 3 31 5 32 46 31 35 -1 42 3 42 18 0 11 -11 23
-26 28 -33 13 -33 13 -73 -8z"/>
<path d="M6055 301 c-44 -9 -39 -36 6 -37 69 -2 84 -34 16 -34 -62 0 -94 -38
-67 -80 6 -11 30 -15 85 -16 l75 -1 0 68 c0 68 -14 99 -45 99 -7 0 -19 2 -27
4 -7 2 -26 1 -43 -3z m56 -116 c0 -5 -12 -11 -26 -13 -18 -2 -25 1 -25 13 0
12 7 15 25 13 14 -2 26 -7 26 -13z"/>
<path d="M3342 217 c3 -74 5 -82 23 -82 17 0 20 8 23 52 2 40 8 55 23 63 10 6
19 7 19 3 1 -10 30 28 30 38 0 4 -27 7 -60 7 l-61 0 3 -81z"/>
<path d="M3712 218 c3 -77 5 -83 26 -86 21 -3 22 0 22 72 0 42 0 79 0 84 0 4
-11 8 -25 10 l-26 3 3 -83z"/>
<path d="M4356 228 c6 -77 19 -98 58 -98 12 0 28 4 36 10 9 5 19 5 27 -2 7 -5
20 -8 28 -4 12 4 15 23 15 86 0 78 -1 80 -25 80 -23 0 -24 -4 -27 -62 -3 -60
-4 -63 -28 -63 -24 0 -25 3 -28 63 -3 62 -3 62 -33 62 l-30 0 7 -72z"/>
<path d="M5522 277 c-22 -23 -29 -68 -16 -102 8 -19 55 -45 83 -45 31 0 71 21
71 38 0 11 -9 13 -41 9 -48 -6 -69 -1 -69 19 0 10 15 14 60 14 57 0 60 1 60
25 0 61 -103 90 -148 42z m82 -13 c28 -11 17 -24 -19 -24 -34 0 -47 13 -22 23
18 8 23 8 41 1z"/>
<path d="M6224 176 c-10 -26 4 -46 31 -46 23 0 26 4 23 28 -3 31 -44 45 -54
18z"/>
</g>
</svg>
